# xmcd
#
# Track frame offsets:
#	150
#	14392
#	29237
#	47197
#	63984
#	80197
#	96990
#	110981
#	133589
#	149970
#	165999
#	187494
#
# Disc length: 2735 seconds
#
# Revision: 1
# Processed by: cddbd v1.5.2PL0 Copyright (c) Steve Scherf et al.
# Submitted via: audiograbber 1.83.01
#
DISCID=c30aad0c
DTITLE=Trace Adkins - X
DYEAR=2008
DGENRE=Country
TTITLE0=Sweet
TTITLE1=Happy To Be Here
TTITLE2=All I Ask For Anymore
TTITLE3=Let's Do That Again
TTITLE4=Hauling One Thing
TTITLE5=Better Than I Thought It'd Be
TTITLE6=Marry For Money
TTITLE7=Til The Last Shot's Fired
TTITLE8=I Can't Outrun You
TTITLE9=Hillbilly Rich
TTITLE10=Sometimes A Man Takes A Drink
TTITLE11=Muddy Water
EXTD=
EXTT0=
EXTT1=
EXTT2=
EXTT3=
EXTT4=
EXTT5=
EXTT6=
EXTT7=
EXTT8=
EXTT9=
EXTT10=
EXTT11=
PLAYORDER=
